<?xml version="1.0" standalone="no"?>
<!DOCTYPE svg PUBLIC "-//W3C//DTD SVG 20010904//EN"
 "http://www.w3.org/TR/2001/REC-SVG-20010904/DTD/svg10.dtd">
<svg version="1.0" xmlns="http://www.w3.org/2000/svg"
 width="100.000000pt" height="100.000000pt" viewBox="0 0 100.000000 100.000000"
 preserveAspectRatio="xMidYMid meet">
<metadata>
Created by potrace 1.11, written by Peter Selinger 2001-2013
</metadata>
<g transform="translate(0.000000,100.000000) scale(0.100000,-0.100000)"
fill="#000000" stroke="none">
<path d="M243 921 c-4 -16 -13 -21 -38 -21 -66 0 -65 6 -65 -417 0 -355 1
-381 18 -396 17 -15 55 -17 340 -17 358 0 351 -1 353 68 0 51 1 693 0 714 -1
24 -29 48 -56 48 -19 0 -23 -5 -21 -30 1 -17 -3 -35 -10 -40 -8 -8 -11 1 -11
32 -1 71 -2 78 -17 78 -8 0 -18 -9 -21 -20 -4 -14 -15 -20 -35 -20 -24 0 -28
-4 -25 -25 1 -14 -3 -33 -10 -42 -11 -15 -12 -10 -11 27 2 25 1 53 -2 63 -6
23 -28 22 -35 -2 -3 -12 -15 -21 -33 -23 -24 -2 -29 -8 -30 -33 -2 -42 -3 -45
-14 -45 -5 0 -8 19 -6 42 4 53 -3 78 -20 78 -13 0 -18 -12 -15 -32 0 -5 -14
-8 -32 -8 -31 0 -32 -2 -31 -34 1 -19 -3 -37 -10 -39 -7 -3 -11 13 -11 51 0
57 -21 85 -32 43 -4 -15 -13 -21 -34 -21 -16 0 -29 -6 -30 -12 -1 -7 -2 -24
-2 -37 -1 -13 -7 -26 -12 -28 -6 -2 -10 20 -10 54 0 37 -4 58 -13 61 -7 2 -16
-5 -19 -17z m385 -245 c3 -4 7 -12 8 -20 3 -19 -341 -20 -357 0 -9 11 -7 15 9
21 25 9 330 8 340 -1z m82 -151 c0 -20 -6 -20 -212 -20 -170 0 -212 3 -216 14
-2 7 0 16 6 20 5 3 103 6 216 6 200 0 206 -1 206 -20z m-80 -128 c0 -4 0 -13
0 -20 0 -10 -38 -12 -167 -11 -200 2 -183 0 -183 22 0 16 14 17 175 17 96 0
175 -4 175 -8z m45 -146 c3 -8 3 -16 0 -20 -4 -3 -93 -6 -198 -6 -186 0 -192
1 -195 21 -3 20 1 20 192 20 159 0 197 -3 201 -15z"/>
</g>
</svg>
